<?xml version="1.0" standalone="no"?>
<!DOCTYPE svg PUBLIC "-//W3C//DTD SVG 20010904//EN"
 "http://www.w3.org/TR/2001/REC-SVG-20010904/DTD/svg10.dtd">
<svg version="1.0" xmlns="http://www.w3.org/2000/svg"
 width="1200.000000pt" height="440.000000pt" viewBox="0 0 1200.000000 440.000000"
 preserveAspectRatio="xMidYMid meet">

<g transform="translate(0.000000,440.000000) scale(0.100000,-0.100000)"
fill="#000000" stroke="none">
<path d="M5755 3364 c-481 -38 -747 -81 -1065 -171 -295 -83 -597 -216 -805
-354 -128 -85 -320 -270 -374 -361 -118 -201 -120 -353 -10 -540 244 -415 933
-744 1809 -864 423 -58 987 -58 1415 1 633 87 1189 294 1535 570 86 69 206
198 249 269 70 116 86 170 86 286 0 91 -4 113 -27 168 -100 236 -340 447 -710
626 -384 186 -820 299 -1368 352 -148 14 -630 26 -735 18z m719 -58 c354 -35
733 -111 966 -195 l55 -19 -1255 -2 c-690 -1 -1262 -1 -1270 -1 -8 -1 -105 0
-216 1 -111 1 -211 -1 -223 -5 -11 -3 -21 -4 -21 -1 0 3 48 21 108 40 286 92
639 159 987 186 77 5 156 12 175 14 76 9 544 -4 694 -18z m-1000 -252 c17 -7
22 -34 7 -34 -6 0 -26 -10 -47 -22 -34 -20 -35 -22 -18 -34 122 -83 154 -136
154 -253 0 -96 -29 -162 -99 -229 -42 -41 -141 -100 -189 -114 -7 -2 15 -26
50 -53 72 -58 96 -107 105 -217 3 -38 9 -68 12 -67 3 0 54 55 114 122 112 127
213 258 300 390 l52 77 89 0 88 0 -14 -22 c-90 -138 -406 -655 -424 -692 -28
-61 -51 -183 -37 -197 18 -18 132 71 287 226 207 209 321 279 451 280 70 0
117 -27 139 -78 l12 -32 28 48 28 47 85 0 84 0 -52 -97 c-29 -54 -62 -114 -75
-134 -71 -112 -122 -239 -96 -239 20 0 88 61 227 204 163 167 239 224 343 256
118 37 206 20 236 -45 20 -41 20 -78 1 -114 -24 -47 -83 -56 -122 -19 -25 23
-29 51 -13 94 13 33 7 40 -23 27 -55 -25 -221 -315 -215 -376 6 -64 96 -73
191 -19 117 67 302 266 716 770 l83 102 89 0 c49 0 89 -2 89 -5 0 -3 -57 -97
-316 -515 -32 -50 -49 -89 -44 -94 5 -5 28 -3 57 5 39 11 62 28 127 96 111
117 174 137 231 74 25 -29 25 -83 -1 -118 -16 -21 -31 -29 -62 -31 -35 -3 -43
1 -58 22 -9 15 -14 35 -11 46 8 30 -11 24 -41 -12 -15 -17 -42 -48 -60 -69
l-33 -37 26 -37 c33 -50 33 -109 0 -175 -30 -59 -30 -60 -7 -60 28 0 110 56
185 126 67 64 97 78 97 48 0 -28 -150 -168 -222 -208 -122 -68 -193 -72 -228
-13 -28 45 -25 73 16 161 19 43 34 84 32 93 -2 11 -18 15 -60 16 l-57 2 -63
-105 c-34 -58 -74 -124 -90 -147 l-29 -43 -89 0 c-50 0 -90 3 -90 8 0 4 15 30
33 57 57 84 187 296 249 405 11 19 -67 -54 -174 -162 -258 -263 -342 -316
-489 -306 -85 6 -127 30 -156 88 -26 50 -28 97 -8 153 l13 39 -26 -24 c-14
-12 -68 -66 -121 -119 -80 -80 -106 -100 -155 -118 -100 -37 -150 -10 -148 79
0 28 -2 50 -4 50 -3 0 -29 -20 -57 -45 -77 -67 -166 -109 -219 -102 -45 6 -81
28 -111 69 -23 31 -25 105 -3 167 9 24 16 46 16 50 0 3 -46 -42 -102 -100
-158 -162 -230 -203 -316 -181 -26 7 -58 24 -72 38 -21 21 -24 33 -23 84 1 75
21 135 78 235 l45 80 -178 -181 c-195 -199 -240 -230 -373 -254 -154 -28 -240
28 -238 155 1 71 13 108 55 167 28 40 128 107 141 95 3 -3 -27 -42 -65 -86
-76 -85 -99 -137 -86 -194 11 -53 22 -67 55 -67 95 0 200 101 291 281 41 81
43 87 43 176 0 90 -1 93 -31 124 -30 30 -33 31 -79 21 -59 -13 -90 -2 -99 32
-8 34 7 62 47 86 38 24 82 25 121 5 15 -8 30 -15 32 -15 1 0 30 22 63 50 83
69 125 156 119 250 -4 66 -30 132 -69 179 l-20 24 -60 -59 c-130 -127 -219
-283 -302 -529 -54 -158 -86 -228 -145 -320 -151 -236 -341 -356 -602 -380
-91 -8 -202 13 -265 50 -84 49 -145 147 -145 233 0 108 154 218 241 172 28
-15 49 -63 49 -111 0 -61 -45 -103 -128 -119 -40 -8 -62 -17 -62 -26 0 -21 69
-93 110 -114 52 -26 117 -33 190 -20 78 14 109 30 166 82 53 49 84 102 167
285 153 337 393 659 610 819 l57 43 -57 8 c-95 13 -300 8 -382 -11 -195 -44
-383 -128 -498 -224 -146 -123 -191 -283 -103 -367 26 -25 38 -29 84 -29 103
2 207 74 298 207 22 32 72 122 111 199 81 161 85 162 86 5 1 -86 -3 -107 -30
-177 -82 -213 -200 -300 -409 -302 -88 -1 -158 20 -204 60 -31 28 -56 93 -56
151 0 82 43 156 164 276 86 85 116 108 201 151 114 59 219 96 337 119 102 20
349 29 480 18 79 -7 103 -6 125 6 65 35 116 47 147 35z"/>
<path d="M6355 2126 c-55 -24 -159 -149 -210 -250 -55 -111 -59 -159 -13 -164
40 -5 107 45 189 141 82 97 119 165 119 222 0 63 -24 78 -85 51z"/>
<path d="M3992 3107 c-12 -7 -19 -17 -15 -22 4 -4 2 -5 -4 -1 -16 9 -169 -80
-278 -161 -393 -292 -536 -659 -389 -996 104 -235 366 -479 699 -649 932 -476
2443 -556 3557 -187 630 208 1045 523 1174 890 36 101 44 255 19 364 -49 220
-237 456 -505 631 -94 62 -273 160 -236 130 18 -15 16 -16 -30 -16 -27 0 -56
-1 -64 -1 -8 -1 -24 2 -35 6 -11 4 27 -19 84 -49 196 -105 326 -200 456 -330
129 -130 185 -214 230 -343 69 -198 21 -399 -143 -604 -344 -427 -1127 -730
-2092 -809 -166 -13 -658 -14 -818 0 -1117 93 -1963 474 -2206 991 -101 214
-78 403 77 627 104 151 305 316 546 448 l130 71 -77 -4 c-71 -4 -75 -3 -58 12
24 18 10 19 -22 2z"/>
</g>
</svg>
